<svg width="341" height="107" viewBox="0 0 341 107" fill="none" xmlns="http://www.w3.org/2000/svg">
<path d="M67.9558 74.9292C68.8081 74.9292 69.5184 75.6459 69.5184 76.506C69.5184 77.366 68.8081 78.0827 67.9558 78.0827C67.1035 78.0827 66.3932 77.366 66.3932 76.506C66.3932 75.6458 67.1035 74.9292 67.9558 74.9292Z" fill="#121212"/>
<path d="M25.3415 29.634C26.1938 29.634 26.9041 30.3508 26.9041 31.2108C26.9041 32.0708 26.1938 32.7876 25.3415 32.7876C24.4892 32.7876 23.7789 32.0708 23.7789 31.2108C23.7789 30.3508 24.4892 29.634 25.3415 29.634Z" fill="#121212"/>
<path d="M16.3925 20.6036C17.2448 20.6036 17.9551 21.3204 17.9551 22.1804C17.9551 23.0405 17.2448 23.7572 16.3925 23.7572C15.5402 23.7572 14.8299 23.0405 14.8299 22.1804C14.8299 21.3204 15.5402 20.6036 16.3925 20.6036Z" fill="#121212"/>
<path d="M7.58553 13.1501C9.00612 11.7168 10.9947 11 12.9834 11C15.1141 11 16.9607 11.86 18.3813 13.4368L39.2246 36.5729C39.443 36.6396 39.6509 36.7632 39.8304 36.9443L78.0412 75.5025C78.3254 75.7892 78.4673 76.0758 78.4673 76.5058C78.4673 76.9358 78.3254 77.2225 78.0412 77.5091L64.5466 91.1264C64.3963 91.278 64.2455 91.3882 64.0742 91.4598L60.0011 95.57C59.7169 95.8567 59.4329 96 59.0068 96C58.5806 96 58.2965 95.8567 58.0125 95.57L19.8017 57.1552C19.5175 56.8685 19.3755 56.5819 19.3755 56.1519C19.3755 55.7219 19.5175 55.4352 19.8017 55.1486L24.3472 50.5617L24.3474 50.5615L30.0597 44.7973L7.86968 24.0439C6.30711 22.6106 5.59698 20.6038 5.45483 18.597C5.31267 16.5902 6.16512 14.5834 7.58553 13.1501ZM38.8361 40.0978L27.4013 51.6366L63.4813 88.0447L74.916 76.506L38.8361 40.0978ZM59.0068 92.5599L61.4216 90.123L25.3415 53.7149L22.9267 56.1517L59.0068 92.5599ZM8.15383 18.7403C8.29583 20.0303 8.72197 21.1771 9.71641 22.0371L32.0177 42.8212L36.8472 37.9478L16.3924 15.4436C15.3981 14.4403 14.2617 13.8668 12.9832 13.8668C11.7048 13.8668 10.4264 14.4401 9.57408 15.3002C8.57997 16.1602 8.01167 17.4502 8.15383 18.7403Z" fill="#121212"/>
<path d="M110.7 72.824C107.892 72.824 105.192 72.374 102.6 71.474C100.044 70.538 98.064 69.35 96.66 67.91L98.226 64.832C99.558 66.128 101.34 67.226 103.572 68.126C105.84 68.99 108.216 69.422 110.7 69.422C113.076 69.422 115.002 69.134 116.478 68.558C117.99 67.946 119.088 67.136 119.772 66.128C120.492 65.12 120.852 64.004 120.852 62.78C120.852 61.304 120.42 60.116 119.556 59.216C118.728 58.316 117.63 57.614 116.262 57.11C114.894 56.57 113.382 56.102 111.726 55.706C110.07 55.31 108.414 54.896 106.758 54.464C105.102 53.996 103.572 53.384 102.168 52.628C100.8 51.872 99.684 50.882 98.82 49.658C97.992 48.398 97.578 46.76 97.578 44.744C97.578 42.872 98.064 41.162 99.036 39.614C100.044 38.03 101.574 36.77 103.626 35.834C105.678 34.862 108.306 34.376 111.51 34.376C113.634 34.376 115.74 34.682 117.828 35.294C119.916 35.87 121.716 36.68 123.228 37.724L121.878 40.91C120.258 39.83 118.53 39.038 116.694 38.534C114.894 38.03 113.148 37.778 111.456 37.778C109.188 37.778 107.316 38.084 105.84 38.696C104.364 39.308 103.266 40.136 102.546 41.18C101.862 42.188 101.52 43.34 101.52 44.636C101.52 46.112 101.934 47.3 102.762 48.2C103.626 49.1 104.742 49.802 106.11 50.306C107.514 50.81 109.044 51.26 110.7 51.656C112.356 52.052 113.994 52.484 115.614 52.952C117.27 53.42 118.782 54.032 120.15 54.788C121.554 55.508 122.67 56.48 123.498 57.704C124.362 58.928 124.794 60.53 124.794 62.51C124.794 64.346 124.29 66.056 123.282 67.64C122.274 69.188 120.726 70.448 118.638 71.42C116.586 72.356 113.94 72.824 110.7 72.824ZM150.025 72.824C147.181 72.824 144.535 72.356 142.087 71.42C139.675 70.448 137.569 69.098 135.769 67.37C134.005 65.606 132.619 63.572 131.611 61.268C130.639 58.928 130.153 56.372 130.153 53.6C130.153 50.828 130.639 48.29 131.611 45.986C132.619 43.646 134.005 41.612 135.769 39.884C137.569 38.12 139.675 36.77 142.087 35.834C144.499 34.862 147.145 34.376 150.025 34.376C152.869 34.376 155.497 34.862 157.909 35.834C160.321 36.77 162.409 38.102 164.173 39.83C165.973 41.558 167.359 43.592 168.331 45.932C169.339 48.272 169.843 50.828 169.843 53.6C169.843 56.372 169.339 58.928 168.331 61.268C167.359 63.608 165.973 65.642 164.173 67.37C162.409 69.098 160.321 70.448 157.909 71.42C155.497 72.356 152.869 72.824 150.025 72.824ZM162.391 80.006C161.239 80.006 160.123 79.862 159.043 79.574C157.963 79.286 156.865 78.818 155.749 78.17C154.669 77.558 153.553 76.748 152.401 75.74C151.249 74.732 149.989 73.508 148.621 72.068L152.995 70.988C154.111 72.32 155.191 73.418 156.235 74.282C157.315 75.146 158.359 75.776 159.367 76.172C160.411 76.604 161.437 76.82 162.445 76.82C165.253 76.82 167.647 75.668 169.627 73.364L171.571 75.686C169.195 78.566 166.135 80.006 162.391 80.006ZM150.025 69.26C152.293 69.26 154.381 68.882 156.289 68.126C158.233 67.334 159.907 66.218 161.311 64.778C162.751 63.338 163.867 61.682 164.659 59.81C165.451 57.902 165.847 55.832 165.847 53.6C165.847 51.332 165.451 49.262 164.659 47.39C163.867 45.482 162.751 43.826 161.311 42.422C159.907 40.982 158.233 39.884 156.289 39.128C154.381 38.336 152.293 37.94 150.025 37.94C147.757 37.94 145.651 38.336 143.707 39.128C141.763 39.884 140.071 40.982 138.631 42.422C137.227 43.826 136.111 45.482 135.283 47.39C134.491 49.262 134.095 51.332 134.095 53.6C134.095 55.832 134.491 57.902 135.283 59.81C136.111 61.682 137.227 63.338 138.631 64.778C140.071 66.218 141.763 67.334 143.707 68.126C145.651 68.882 147.757 69.26 150.025 69.26ZM178.8 72.5V34.7H182.796V69.044H203.964V72.5H178.8Z" fill="#121212"/>
<path d="M226.276 72.824C223.432 72.824 220.804 72.356 218.392 71.42C215.98 70.448 213.892 69.098 212.128 67.37C210.364 65.642 208.978 63.608 207.97 61.268C206.998 58.928 206.512 56.372 206.512 53.6C206.512 50.828 206.998 48.272 207.97 45.932C208.978 43.592 210.364 41.558 212.128 39.83C213.928 38.102 216.034 36.77 218.446 35.834C220.858 34.862 223.486 34.376 226.33 34.376C229.066 34.376 231.64 34.844 234.052 35.78C236.464 36.68 238.498 38.048 240.154 39.884L237.616 42.422C236.068 40.838 234.358 39.704 232.486 39.02C230.614 38.3 228.598 37.94 226.438 37.94C224.17 37.94 222.064 38.336 220.12 39.128C218.176 39.884 216.484 40.982 215.044 42.422C213.604 43.826 212.47 45.482 211.642 47.39C210.85 49.262 210.454 51.332 210.454 53.6C210.454 55.868 210.85 57.956 211.642 59.864C212.47 61.736 213.604 63.392 215.044 64.832C216.484 66.236 218.176 67.334 220.12 68.126C222.064 68.882 224.17 69.26 226.438 69.26C228.598 69.26 230.614 68.9 232.486 68.18C234.358 67.46 236.068 66.308 237.616 64.724L240.154 67.262C238.498 69.098 236.464 70.484 234.052 71.42C231.64 72.356 229.048 72.824 226.276 72.824ZM262.335 43.88C264.639 43.88 266.655 44.33 268.383 45.23C270.147 46.094 271.515 47.426 272.487 49.226C273.495 51.026 273.999 53.294 273.999 56.03V72.5H270.165V56.408C270.165 53.42 269.409 51.17 267.897 49.658C266.421 48.11 264.333 47.336 261.633 47.336C259.617 47.336 257.853 47.75 256.341 48.578C254.865 49.37 253.713 50.54 252.885 52.088C252.093 53.6 251.697 55.436 251.697 57.596V72.5H247.863V32.432H251.697V51.926L250.941 50.468C251.841 48.416 253.281 46.814 255.261 45.662C257.241 44.474 259.599 43.88 262.335 43.88ZM296.397 72.77C293.445 72.77 290.853 72.158 288.621 70.934C286.389 69.674 284.643 67.964 283.383 65.804C282.123 63.608 281.493 61.106 281.493 58.298C281.493 55.49 282.087 53.006 283.275 50.846C284.499 48.686 286.155 46.994 288.243 45.77C290.367 44.51 292.743 43.88 295.371 43.88C298.035 43.88 300.393 44.492 302.445 45.716C304.533 46.904 306.171 48.596 307.359 50.792C308.547 52.952 309.141 55.454 309.141 58.298C309.141 58.478 309.123 58.676 309.087 58.892C309.087 59.072 309.087 59.27 309.087 59.486H284.409V56.624H307.035L305.523 57.758C305.523 55.706 305.073 53.888 304.173 52.304C303.309 50.684 302.121 49.424 300.609 48.524C299.097 47.624 297.351 47.174 295.371 47.174C293.427 47.174 291.681 47.624 290.133 48.524C288.585 49.424 287.379 50.684 286.515 52.304C285.651 53.924 285.219 55.778 285.219 57.866V58.46C285.219 60.62 285.687 62.528 286.623 64.184C287.595 65.804 288.927 67.082 290.619 68.018C292.347 68.918 294.309 69.368 296.505 69.368C298.233 69.368 299.835 69.062 301.311 68.45C302.823 67.838 304.119 66.902 305.199 65.642L307.359 68.126C306.099 69.638 304.515 70.79 302.607 71.582C300.735 72.374 298.665 72.77 296.397 72.77ZM317.593 72.5V40.586C317.593 38.066 318.331 36.032 319.807 34.484C321.283 32.936 323.407 32.162 326.179 32.162C327.259 32.162 328.303 32.306 329.311 32.594C330.319 32.882 331.165 33.332 331.849 33.944L330.553 36.806C330.013 36.338 329.383 35.996 328.663 35.78C327.943 35.528 327.169 35.402 326.341 35.402C324.721 35.402 323.479 35.852 322.615 36.752C321.751 37.652 321.319 38.984 321.319 40.748V45.068L321.427 46.85V72.5H317.593ZM312.517 47.336V44.15H330.067V47.336H312.517Z" fill="#969595"/>
</svg>
