<?xml version="1.0" encoding="iso-8859-1"?>
<!-- Uploaded to: SVG Repo, www.svgrepo.com, Generator: SVG Repo Mixer Tools -->
<svg fill="#000000" height="800px" width="800px" version="1.1" id="Layer_1" xmlns="http://www.w3.org/2000/svg" xmlns:xlink="http://www.w3.org/1999/xlink" 
	 viewBox="0 0 506.027 506.027" xml:space="preserve">
<g transform="translate(1 1)">
	<g>
		<g>
			<path d="M95.807,379.587c-5.12,0-9.387,4.267-9.387,9.387c0,5.12,4.267,9.387,9.387,9.387s9.387-4.267,9.387-9.387
				C105.194,383.853,100.927,379.587,95.807,379.587z"/>
			<path d="M351.807,109.933c-5.12,0-9.387,4.267-9.387,9.387s4.267,9.387,9.387,9.387s9.387-4.267,9.387-9.387
				S356.927,109.933,351.807,109.933z"/>
			<path d="M405.567,56.173c-5.12,0-9.387,4.267-9.387,9.387s4.267,9.387,9.387,9.387c5.12,0,9.387-4.267,9.387-9.387
				S410.687,56.173,405.567,56.173z"/>
			<path d="M458.474,11.8C449.94,3.267,437.994-1,426.047-1c-12.8,0-23.893,5.12-32.427,14.507L268.406,151.242
				c-1.312,0.397-2.561,1.133-3.639,2.211L35.22,383c-1.707,1.707-2.56,3.413-2.56,5.973c0,2.56,0.853,4.267,2.56,5.973
				l81.067,81.067c0.903,0.903,1.809,1.559,2.838,1.985l24.469,24.469c1.707,1.707,3.413,2.56,5.973,2.56s4.267-0.853,5.973-2.56
				l229.547-228.693c1.707-1.707,2.56-3.413,2.56-5.973c0-2.56-0.853-4.267-2.56-5.973l-27.307-27.307c0,0,0,0-0.001-0.001
				l-34.316-34.316l133.304-123.55c9.387-8.533,13.653-20.48,14.507-32.427S467.007,20.333,458.474,11.8z M270.74,172.227
				l68.693,68.693L122.687,457.667l-68.693-68.693L270.74,172.227z M149.567,484.547L135.06,470.04l216.747-216.747l14.507,14.507
				L149.567,484.547z M455.06,45.08c-0.853,7.68-3.413,14.507-9.387,19.627L311.701,188.44l-29.013-29.013l122.88-133.973
				c5.973-5.973,12.8-9.387,20.48-9.387c7.68,0,15.36,3.413,20.48,8.533C452.5,29.72,455.914,37.4,455.06,45.08z"/>
		</g>
	</g>
</g>
</svg>